<mxfile host="Electron" agent="Mozilla/5.0 (X11; Linux x86_64) AppleWebKit/537.36 (KHTML, like Gecko) draw.io/28.2.5 Chrome/138.0.7204.251 Electron/37.5.1 Safari/537.36" version="28.2.5">
  <diagram name="Page-1" id="y0QL2tkSJJZujMTYGrcq">
    <mxGraphModel dx="1097" dy="698" grid="1" gridSize="10" guides="1" tooltips="1" connect="1" arrows="1" fold="1" page="1" pageScale="1" pageWidth="850" pageHeight="1100" math="0" shadow="0">
      <root>
        <mxCell id="0" />
        <mxCell id="1" parent="0" />
        <mxCell id="HmQoRry8JQ-jzrHZFkb6-1" value="" style="shape=mxgraph.bpmn.swimlane;html=1;startSize=20;horizontal=0;swimlaneLine=1;collapsible=0;fontStyle=0;swimlaneFillColor=#ffffff;strokeWidth=2;isCollection=1;whiteSpace=wrap;" vertex="1" parent="1">
          <mxGeometry x="110" y="330" width="810" height="150" as="geometry" />
        </mxCell>
        <mxCell id="HmQoRry8JQ-jzrHZFkb6-2" value="" style="shape=mxgraph.bpmn.swimlane;html=1;startSize=20;horizontal=0;swimlaneLine=1;collapsible=0;fontStyle=0;swimlaneFillColor=#ffffff;strokeWidth=2;isCollection=1;whiteSpace=wrap;" vertex="1" parent="1">
          <mxGeometry x="110" y="530" width="810" height="150" as="geometry" />
        </mxCell>
        <mxCell id="HmQoRry8JQ-jzrHZFkb6-3" value="" style="shape=mxgraph.bpmn.swimlane;html=1;startSize=20;horizontal=0;swimlaneLine=1;collapsible=0;fontStyle=0;swimlaneFillColor=#ffffff;strokeWidth=2;isCollection=1;whiteSpace=wrap;" vertex="1" parent="1">
          <mxGeometry x="110" y="730" width="810" height="540" as="geometry" />
        </mxCell>
        <mxCell id="HmQoRry8JQ-jzrHZFkb6-4" value="" style="shape=mxgraph.bpmn.swimlane;html=1;startSize=20;horizontal=0;swimlaneLine=1;collapsible=0;fontStyle=0;swimlaneFillColor=#ffffff;strokeWidth=2;isCollection=1;whiteSpace=wrap;" vertex="1" parent="1">
          <mxGeometry x="110" y="1330" width="810" height="150" as="geometry" />
        </mxCell>
        <mxCell id="HmQoRry8JQ-jzrHZFkb6-5" value="" style="shape=mxgraph.bpmn.swimlane;html=1;startSize=20;horizontal=0;swimlaneLine=1;collapsible=0;fontStyle=0;swimlaneFillColor=#ffffff;strokeWidth=2;isCollection=1;whiteSpace=wrap;" vertex="1" parent="1">
          <mxGeometry x="110" y="1530" width="810" height="150" as="geometry" />
        </mxCell>
        <mxCell id="HmQoRry8JQ-jzrHZFkb6-6" value="" style="points=[[0.25,0,0],[0.5,0,0],[0.75,0,0],[1,0.25,0],[1,0.5,0],[1,0.75,0],[0.75,1,0],[0.5,1,0],[0.25,1,0],[0,0.75,0],[0,0.5,0],[0,0.25,0]];shape=mxgraph.bpmn.task2;whiteSpace=wrap;rectStyle=rounded;size=10;html=1;container=1;expand=0;collapsible=0;taskMarker=abstract;" vertex="1" parent="1">
          <mxGeometry x="540" y="800" width="120" height="280" as="geometry" />
        </mxCell>
        <mxCell id="HmQoRry8JQ-jzrHZFkb6-18" style="edgeStyle=orthogonalEdgeStyle;rounded=0;orthogonalLoop=1;jettySize=auto;html=1;" edge="1" parent="1" source="HmQoRry8JQ-jzrHZFkb6-7" target="HmQoRry8JQ-jzrHZFkb6-6">
          <mxGeometry relative="1" as="geometry">
            <Array as="points">
              <mxPoint x="290" y="405" />
              <mxPoint x="290" y="500" />
              <mxPoint x="470" y="500" />
              <mxPoint x="470" y="860" />
            </Array>
          </mxGeometry>
        </mxCell>
        <mxCell id="HmQoRry8JQ-jzrHZFkb6-7" value="" style="points=[[0.25,0,0],[0.5,0,0],[0.75,0,0],[1,0.25,0],[1,0.5,0],[1,0.75,0],[0.75,1,0],[0.5,1,0],[0.25,1,0],[0,0.75,0],[0,0.5,0],[0,0.25,0]];shape=mxgraph.bpmn.task2;whiteSpace=wrap;rectStyle=rounded;size=10;html=1;container=1;expand=0;collapsible=0;taskMarker=abstract;" vertex="1" parent="1">
          <mxGeometry x="150" y="365" width="120" height="80" as="geometry" />
        </mxCell>
        <mxCell id="HmQoRry8JQ-jzrHZFkb6-19" style="edgeStyle=orthogonalEdgeStyle;rounded=0;orthogonalLoop=1;jettySize=auto;html=1;" edge="1" parent="1" source="HmQoRry8JQ-jzrHZFkb6-8" target="HmQoRry8JQ-jzrHZFkb6-6">
          <mxGeometry relative="1" as="geometry">
            <Array as="points">
              <mxPoint x="480" y="405" />
              <mxPoint x="480" y="850" />
            </Array>
          </mxGeometry>
        </mxCell>
        <mxCell id="HmQoRry8JQ-jzrHZFkb6-8" value="" style="points=[[0.25,0,0],[0.5,0,0],[0.75,0,0],[1,0.25,0],[1,0.5,0],[1,0.75,0],[0.75,1,0],[0.5,1,0],[0.25,1,0],[0,0.75,0],[0,0.5,0],[0,0.25,0]];shape=mxgraph.bpmn.task2;whiteSpace=wrap;rectStyle=rounded;size=10;html=1;container=1;expand=0;collapsible=0;taskMarker=abstract;" vertex="1" parent="1">
          <mxGeometry x="320" y="365" width="120" height="80" as="geometry" />
        </mxCell>
        <mxCell id="HmQoRry8JQ-jzrHZFkb6-20" style="edgeStyle=orthogonalEdgeStyle;rounded=0;orthogonalLoop=1;jettySize=auto;html=1;" edge="1" parent="1" source="HmQoRry8JQ-jzrHZFkb6-9" target="HmQoRry8JQ-jzrHZFkb6-6">
          <mxGeometry relative="1" as="geometry">
            <Array as="points">
              <mxPoint x="670" y="405" />
              <mxPoint x="670" y="490" />
              <mxPoint x="490" y="490" />
              <mxPoint x="490" y="840" />
            </Array>
          </mxGeometry>
        </mxCell>
        <mxCell id="HmQoRry8JQ-jzrHZFkb6-9" value="" style="points=[[0.25,0,0],[0.5,0,0],[0.75,0,0],[1,0.25,0],[1,0.5,0],[1,0.75,0],[0.75,1,0],[0.5,1,0],[0.25,1,0],[0,0.75,0],[0,0.5,0],[0,0.25,0]];shape=mxgraph.bpmn.task2;whiteSpace=wrap;rectStyle=rounded;size=10;html=1;container=1;expand=0;collapsible=0;taskMarker=abstract;" vertex="1" parent="1">
          <mxGeometry x="530" y="365" width="120" height="80" as="geometry" />
        </mxCell>
        <mxCell id="HmQoRry8JQ-jzrHZFkb6-21" style="edgeStyle=orthogonalEdgeStyle;rounded=0;orthogonalLoop=1;jettySize=auto;html=1;" edge="1" parent="1" source="HmQoRry8JQ-jzrHZFkb6-10" target="HmQoRry8JQ-jzrHZFkb6-6">
          <mxGeometry relative="1" as="geometry">
            <Array as="points">
              <mxPoint x="860" y="405" />
              <mxPoint x="860" y="500" />
              <mxPoint x="500" y="500" />
              <mxPoint x="500" y="830" />
            </Array>
          </mxGeometry>
        </mxCell>
        <mxCell id="HmQoRry8JQ-jzrHZFkb6-10" value="" style="points=[[0.25,0,0],[0.5,0,0],[0.75,0,0],[1,0.25,0],[1,0.5,0],[1,0.75,0],[0.75,1,0],[0.5,1,0],[0.25,1,0],[0,0.75,0],[0,0.5,0],[0,0.25,0]];shape=mxgraph.bpmn.task2;whiteSpace=wrap;rectStyle=rounded;size=10;html=1;container=1;expand=0;collapsible=0;taskMarker=abstract;" vertex="1" parent="1">
          <mxGeometry x="710" y="365" width="120" height="80" as="geometry" />
        </mxCell>
        <mxCell id="HmQoRry8JQ-jzrHZFkb6-16" style="edgeStyle=orthogonalEdgeStyle;rounded=0;orthogonalLoop=1;jettySize=auto;html=1;" edge="1" parent="1" source="HmQoRry8JQ-jzrHZFkb6-12" target="HmQoRry8JQ-jzrHZFkb6-6">
          <mxGeometry relative="1" as="geometry">
            <Array as="points">
              <mxPoint x="280" y="605" />
              <mxPoint x="280" y="710" />
              <mxPoint x="450" y="710" />
              <mxPoint x="450" y="880" />
            </Array>
          </mxGeometry>
        </mxCell>
        <mxCell id="HmQoRry8JQ-jzrHZFkb6-12" value="" style="points=[[0.25,0,0],[0.5,0,0],[0.75,0,0],[1,0.25,0],[1,0.5,0],[1,0.75,0],[0.75,1,0],[0.5,1,0],[0.25,1,0],[0,0.75,0],[0,0.5,0],[0,0.25,0]];shape=mxgraph.bpmn.task2;whiteSpace=wrap;rectStyle=rounded;size=10;html=1;container=1;expand=0;collapsible=0;taskMarker=abstract;" vertex="1" parent="1">
          <mxGeometry x="150" y="565" width="120" height="80" as="geometry" />
        </mxCell>
        <mxCell id="HmQoRry8JQ-jzrHZFkb6-17" style="edgeStyle=orthogonalEdgeStyle;rounded=0;orthogonalLoop=1;jettySize=auto;html=1;" edge="1" parent="1" source="HmQoRry8JQ-jzrHZFkb6-13" target="HmQoRry8JQ-jzrHZFkb6-6">
          <mxGeometry relative="1" as="geometry">
            <Array as="points">
              <mxPoint x="380" y="690" />
              <mxPoint x="460" y="690" />
              <mxPoint x="460" y="870" />
            </Array>
          </mxGeometry>
        </mxCell>
        <mxCell id="HmQoRry8JQ-jzrHZFkb6-13" value="" style="points=[[0.25,0,0],[0.5,0,0],[0.75,0,0],[1,0.25,0],[1,0.5,0],[1,0.75,0],[0.75,1,0],[0.5,1,0],[0.25,1,0],[0,0.75,0],[0,0.5,0],[0,0.25,0]];shape=mxgraph.bpmn.task2;whiteSpace=wrap;rectStyle=rounded;size=10;html=1;container=1;expand=0;collapsible=0;taskMarker=abstract;" vertex="1" parent="1">
          <mxGeometry x="320" y="565" width="120" height="80" as="geometry" />
        </mxCell>
        <mxCell id="HmQoRry8JQ-jzrHZFkb6-22" style="edgeStyle=orthogonalEdgeStyle;rounded=0;orthogonalLoop=1;jettySize=auto;html=1;" edge="1" parent="1" source="HmQoRry8JQ-jzrHZFkb6-14" target="HmQoRry8JQ-jzrHZFkb6-6">
          <mxGeometry relative="1" as="geometry">
            <Array as="points">
              <mxPoint x="670" y="605" />
              <mxPoint x="670" y="700" />
              <mxPoint x="510" y="700" />
              <mxPoint x="510" y="820" />
            </Array>
          </mxGeometry>
        </mxCell>
        <mxCell id="HmQoRry8JQ-jzrHZFkb6-14" value="" style="points=[[0.25,0,0],[0.5,0,0],[0.75,0,0],[1,0.25,0],[1,0.5,0],[1,0.75,0],[0.75,1,0],[0.5,1,0],[0.25,1,0],[0,0.75,0],[0,0.5,0],[0,0.25,0]];shape=mxgraph.bpmn.task2;whiteSpace=wrap;rectStyle=rounded;size=10;html=1;container=1;expand=0;collapsible=0;taskMarker=abstract;" vertex="1" parent="1">
          <mxGeometry x="530" y="565" width="120" height="80" as="geometry" />
        </mxCell>
        <mxCell id="HmQoRry8JQ-jzrHZFkb6-23" style="edgeStyle=orthogonalEdgeStyle;rounded=0;orthogonalLoop=1;jettySize=auto;html=1;" edge="1" parent="1" source="HmQoRry8JQ-jzrHZFkb6-15" target="HmQoRry8JQ-jzrHZFkb6-6">
          <mxGeometry relative="1" as="geometry">
            <Array as="points">
              <mxPoint x="860" y="605" />
              <mxPoint x="860" y="710" />
              <mxPoint x="520" y="710" />
              <mxPoint x="520" y="810" />
            </Array>
          </mxGeometry>
        </mxCell>
        <mxCell id="HmQoRry8JQ-jzrHZFkb6-15" value="" style="points=[[0.25,0,0],[0.5,0,0],[0.75,0,0],[1,0.25,0],[1,0.5,0],[1,0.75,0],[0.75,1,0],[0.5,1,0],[0.25,1,0],[0,0.75,0],[0,0.5,0],[0,0.25,0]];shape=mxgraph.bpmn.task2;whiteSpace=wrap;rectStyle=rounded;size=10;html=1;container=1;expand=0;collapsible=0;taskMarker=abstract;" vertex="1" parent="1">
          <mxGeometry x="710" y="565" width="120" height="80" as="geometry" />
        </mxCell>
        <mxCell id="HmQoRry8JQ-jzrHZFkb6-25" style="edgeStyle=orthogonalEdgeStyle;rounded=0;orthogonalLoop=1;jettySize=auto;html=1;" edge="1" parent="1" source="HmQoRry8JQ-jzrHZFkb6-24" target="HmQoRry8JQ-jzrHZFkb6-6">
          <mxGeometry relative="1" as="geometry">
            <Array as="points">
              <mxPoint x="550" y="780" />
              <mxPoint x="550" y="780" />
            </Array>
          </mxGeometry>
        </mxCell>
        <mxCell id="HmQoRry8JQ-jzrHZFkb6-24" value="" style="points=[[0.25,0,0],[0.5,0,0],[0.75,0,0],[1,0.25,0],[1,0.5,0],[1,0.75,0],[0.75,1,0],[0.5,1,0],[0.25,1,0],[0,0.75,0],[0,0.5,0],[0,0.25,0]];shape=mxgraph.bpmn.task2;whiteSpace=wrap;rectStyle=rounded;size=10;html=1;container=1;expand=0;collapsible=0;taskMarker=abstract;" vertex="1" parent="1">
          <mxGeometry x="540" y="740" width="120" height="10" as="geometry" />
        </mxCell>
        <mxCell id="HmQoRry8JQ-jzrHZFkb6-27" style="edgeStyle=orthogonalEdgeStyle;rounded=0;orthogonalLoop=1;jettySize=auto;html=1;" edge="1" parent="1" source="HmQoRry8JQ-jzrHZFkb6-26" target="HmQoRry8JQ-jzrHZFkb6-6">
          <mxGeometry relative="1" as="geometry" />
        </mxCell>
        <mxCell id="HmQoRry8JQ-jzrHZFkb6-26" value="" style="points=[[0.25,0,0],[0.5,0,0],[0.75,0,0],[1,0.25,0],[1,0.5,0],[1,0.75,0],[0.75,1,0],[0.5,1,0],[0.25,1,0],[0,0.75,0],[0,0.5,0],[0,0.25,0]];shape=mxgraph.bpmn.task2;whiteSpace=wrap;rectStyle=rounded;size=10;html=1;container=1;expand=0;collapsible=0;taskMarker=abstract;" vertex="1" parent="1">
          <mxGeometry x="570" y="760" width="60" height="10" as="geometry" />
        </mxCell>
        <mxCell id="HmQoRry8JQ-jzrHZFkb6-31" style="edgeStyle=orthogonalEdgeStyle;rounded=0;orthogonalLoop=1;jettySize=auto;html=1;" edge="1" parent="1" source="HmQoRry8JQ-jzrHZFkb6-29" target="HmQoRry8JQ-jzrHZFkb6-6">
          <mxGeometry relative="1" as="geometry">
            <Array as="points">
              <mxPoint x="500" y="890" />
              <mxPoint x="500" y="890" />
            </Array>
          </mxGeometry>
        </mxCell>
        <mxCell id="HmQoRry8JQ-jzrHZFkb6-29" value="" style="points=[[0.25,0,0],[0.5,0,0],[0.75,0,0],[1,0.25,0],[1,0.5,0],[1,0.75,0],[0.75,1,0],[0.5,1,0],[0.25,1,0],[0,0.75,0],[0,0.5,0],[0,0.25,0]];shape=mxgraph.bpmn.task2;whiteSpace=wrap;rectStyle=rounded;size=10;html=1;container=1;expand=0;collapsible=0;taskMarker=abstract;" vertex="1" parent="1">
          <mxGeometry x="270" y="850" width="120" height="80" as="geometry" />
        </mxCell>
        <mxCell id="HmQoRry8JQ-jzrHZFkb6-32" style="edgeStyle=orthogonalEdgeStyle;rounded=0;orthogonalLoop=1;jettySize=auto;html=1;" edge="1" parent="1" source="HmQoRry8JQ-jzrHZFkb6-30" target="HmQoRry8JQ-jzrHZFkb6-6">
          <mxGeometry relative="1" as="geometry">
            <Array as="points">
              <mxPoint x="400" y="1000" />
              <mxPoint x="400" y="900" />
            </Array>
          </mxGeometry>
        </mxCell>
        <mxCell id="HmQoRry8JQ-jzrHZFkb6-30" value="" style="points=[[0.25,0,0],[0.5,0,0],[0.75,0,0],[1,0.25,0],[1,0.5,0],[1,0.75,0],[0.75,1,0],[0.5,1,0],[0.25,1,0],[0,0.75,0],[0,0.5,0],[0,0.25,0]];shape=mxgraph.bpmn.task2;whiteSpace=wrap;rectStyle=rounded;size=10;html=1;container=1;expand=0;collapsible=0;taskMarker=abstract;" vertex="1" parent="1">
          <mxGeometry x="270" y="960" width="120" height="80" as="geometry" />
        </mxCell>
        <mxCell id="HmQoRry8JQ-jzrHZFkb6-41" style="edgeStyle=orthogonalEdgeStyle;rounded=0;orthogonalLoop=1;jettySize=auto;html=1;" edge="1" parent="1" source="HmQoRry8JQ-jzrHZFkb6-33" target="HmQoRry8JQ-jzrHZFkb6-6">
          <mxGeometry relative="1" as="geometry">
            <Array as="points">
              <mxPoint x="300" y="1400" />
              <mxPoint x="300" y="1120" />
              <mxPoint x="440" y="1120" />
              <mxPoint x="440" y="910" />
            </Array>
          </mxGeometry>
        </mxCell>
        <mxCell id="HmQoRry8JQ-jzrHZFkb6-33" value="" style="points=[[0.25,0,0],[0.5,0,0],[0.75,0,0],[1,0.25,0],[1,0.5,0],[1,0.75,0],[0.75,1,0],[0.5,1,0],[0.25,1,0],[0,0.75,0],[0,0.5,0],[0,0.25,0]];shape=mxgraph.bpmn.task2;whiteSpace=wrap;rectStyle=rounded;size=10;html=1;container=1;expand=0;collapsible=0;taskMarker=abstract;" vertex="1" parent="1">
          <mxGeometry x="150" y="1360" width="120" height="80" as="geometry" />
        </mxCell>
        <mxCell id="HmQoRry8JQ-jzrHZFkb6-42" style="edgeStyle=orthogonalEdgeStyle;rounded=0;orthogonalLoop=1;jettySize=auto;html=1;" edge="1" parent="1" source="HmQoRry8JQ-jzrHZFkb6-34" target="HmQoRry8JQ-jzrHZFkb6-6">
          <mxGeometry relative="1" as="geometry">
            <Array as="points">
              <mxPoint x="450" y="1400" />
              <mxPoint x="450" y="920" />
            </Array>
          </mxGeometry>
        </mxCell>
        <mxCell id="HmQoRry8JQ-jzrHZFkb6-34" value="" style="points=[[0.25,0,0],[0.5,0,0],[0.75,0,0],[1,0.25,0],[1,0.5,0],[1,0.75,0],[0.75,1,0],[0.5,1,0],[0.25,1,0],[0,0.75,0],[0,0.5,0],[0,0.25,0]];shape=mxgraph.bpmn.task2;whiteSpace=wrap;rectStyle=rounded;size=10;html=1;container=1;expand=0;collapsible=0;taskMarker=abstract;" vertex="1" parent="1">
          <mxGeometry x="320" y="1360" width="120" height="80" as="geometry" />
        </mxCell>
        <mxCell id="HmQoRry8JQ-jzrHZFkb6-47" style="edgeStyle=orthogonalEdgeStyle;rounded=0;orthogonalLoop=1;jettySize=auto;html=1;" edge="1" parent="1" source="HmQoRry8JQ-jzrHZFkb6-35" target="HmQoRry8JQ-jzrHZFkb6-6">
          <mxGeometry relative="1" as="geometry">
            <Array as="points">
              <mxPoint x="670" y="1400" />
              <mxPoint x="670" y="1310" />
              <mxPoint x="500" y="1310" />
              <mxPoint x="500" y="970" />
            </Array>
          </mxGeometry>
        </mxCell>
        <mxCell id="HmQoRry8JQ-jzrHZFkb6-35" value="" style="points=[[0.25,0,0],[0.5,0,0],[0.75,0,0],[1,0.25,0],[1,0.5,0],[1,0.75,0],[0.75,1,0],[0.5,1,0],[0.25,1,0],[0,0.75,0],[0,0.5,0],[0,0.25,0]];shape=mxgraph.bpmn.task2;whiteSpace=wrap;rectStyle=rounded;size=10;html=1;container=1;expand=0;collapsible=0;taskMarker=abstract;" vertex="1" parent="1">
          <mxGeometry x="530" y="1360" width="120" height="80" as="geometry" />
        </mxCell>
        <mxCell id="HmQoRry8JQ-jzrHZFkb6-48" style="edgeStyle=orthogonalEdgeStyle;rounded=0;orthogonalLoop=1;jettySize=auto;html=1;" edge="1" parent="1" source="HmQoRry8JQ-jzrHZFkb6-36" target="HmQoRry8JQ-jzrHZFkb6-6">
          <mxGeometry relative="1" as="geometry">
            <Array as="points">
              <mxPoint x="850" y="1400" />
              <mxPoint x="850" y="1300" />
              <mxPoint x="510" y="1300" />
              <mxPoint x="510" y="980" />
            </Array>
          </mxGeometry>
        </mxCell>
        <mxCell id="HmQoRry8JQ-jzrHZFkb6-36" value="" style="points=[[0.25,0,0],[0.5,0,0],[0.75,0,0],[1,0.25,0],[1,0.5,0],[1,0.75,0],[0.75,1,0],[0.5,1,0],[0.25,1,0],[0,0.75,0],[0,0.5,0],[0,0.25,0]];shape=mxgraph.bpmn.task2;whiteSpace=wrap;rectStyle=rounded;size=10;html=1;container=1;expand=0;collapsible=0;taskMarker=abstract;" vertex="1" parent="1">
          <mxGeometry x="710" y="1360" width="120" height="80" as="geometry" />
        </mxCell>
        <mxCell id="HmQoRry8JQ-jzrHZFkb6-43" style="edgeStyle=orthogonalEdgeStyle;rounded=0;orthogonalLoop=1;jettySize=auto;html=1;" edge="1" parent="1" source="HmQoRry8JQ-jzrHZFkb6-37" target="HmQoRry8JQ-jzrHZFkb6-6">
          <mxGeometry relative="1" as="geometry">
            <Array as="points">
              <mxPoint x="300" y="1600" />
              <mxPoint x="300" y="1500" />
              <mxPoint x="460" y="1500" />
              <mxPoint x="460" y="930" />
            </Array>
          </mxGeometry>
        </mxCell>
        <mxCell id="HmQoRry8JQ-jzrHZFkb6-37" value="" style="points=[[0.25,0,0],[0.5,0,0],[0.75,0,0],[1,0.25,0],[1,0.5,0],[1,0.75,0],[0.75,1,0],[0.5,1,0],[0.25,1,0],[0,0.75,0],[0,0.5,0],[0,0.25,0]];shape=mxgraph.bpmn.task2;whiteSpace=wrap;rectStyle=rounded;size=10;html=1;container=1;expand=0;collapsible=0;taskMarker=abstract;" vertex="1" parent="1">
          <mxGeometry x="150" y="1560" width="120" height="80" as="geometry" />
        </mxCell>
        <mxCell id="HmQoRry8JQ-jzrHZFkb6-44" style="edgeStyle=orthogonalEdgeStyle;rounded=0;orthogonalLoop=1;jettySize=auto;html=1;" edge="1" parent="1" source="HmQoRry8JQ-jzrHZFkb6-38" target="HmQoRry8JQ-jzrHZFkb6-6">
          <mxGeometry relative="1" as="geometry">
            <Array as="points">
              <mxPoint x="470" y="1600" />
              <mxPoint x="470" y="940" />
            </Array>
          </mxGeometry>
        </mxCell>
        <mxCell id="HmQoRry8JQ-jzrHZFkb6-38" value="" style="points=[[0.25,0,0],[0.5,0,0],[0.75,0,0],[1,0.25,0],[1,0.5,0],[1,0.75,0],[0.75,1,0],[0.5,1,0],[0.25,1,0],[0,0.75,0],[0,0.5,0],[0,0.25,0]];shape=mxgraph.bpmn.task2;whiteSpace=wrap;rectStyle=rounded;size=10;html=1;container=1;expand=0;collapsible=0;taskMarker=abstract;" vertex="1" parent="1">
          <mxGeometry x="320" y="1560" width="120" height="80" as="geometry" />
        </mxCell>
        <mxCell id="HmQoRry8JQ-jzrHZFkb6-45" style="edgeStyle=orthogonalEdgeStyle;rounded=0;orthogonalLoop=1;jettySize=auto;html=1;" edge="1" parent="1" source="HmQoRry8JQ-jzrHZFkb6-39" target="HmQoRry8JQ-jzrHZFkb6-6">
          <mxGeometry relative="1" as="geometry">
            <Array as="points">
              <mxPoint x="670" y="1600" />
              <mxPoint x="670" y="1510" />
              <mxPoint x="480" y="1510" />
              <mxPoint x="480" y="950" />
            </Array>
          </mxGeometry>
        </mxCell>
        <mxCell id="HmQoRry8JQ-jzrHZFkb6-39" value="" style="points=[[0.25,0,0],[0.5,0,0],[0.75,0,0],[1,0.25,0],[1,0.5,0],[1,0.75,0],[0.75,1,0],[0.5,1,0],[0.25,1,0],[0,0.75,0],[0,0.5,0],[0,0.25,0]];shape=mxgraph.bpmn.task2;whiteSpace=wrap;rectStyle=rounded;size=10;html=1;container=1;expand=0;collapsible=0;taskMarker=abstract;" vertex="1" parent="1">
          <mxGeometry x="530" y="1560" width="120" height="80" as="geometry" />
        </mxCell>
        <mxCell id="HmQoRry8JQ-jzrHZFkb6-46" style="edgeStyle=orthogonalEdgeStyle;rounded=0;orthogonalLoop=1;jettySize=auto;html=1;" edge="1" parent="1" source="HmQoRry8JQ-jzrHZFkb6-40" target="HmQoRry8JQ-jzrHZFkb6-6">
          <mxGeometry relative="1" as="geometry">
            <Array as="points">
              <mxPoint x="850" y="1600" />
              <mxPoint x="850" y="1500" />
              <mxPoint x="490" y="1500" />
              <mxPoint x="490" y="960" />
            </Array>
          </mxGeometry>
        </mxCell>
        <mxCell id="HmQoRry8JQ-jzrHZFkb6-40" value="" style="points=[[0.25,0,0],[0.5,0,0],[0.75,0,0],[1,0.25,0],[1,0.5,0],[1,0.75,0],[0.75,1,0],[0.5,1,0],[0.25,1,0],[0,0.75,0],[0,0.5,0],[0,0.25,0]];shape=mxgraph.bpmn.task2;whiteSpace=wrap;rectStyle=rounded;size=10;html=1;container=1;expand=0;collapsible=0;taskMarker=abstract;" vertex="1" parent="1">
          <mxGeometry x="710" y="1560" width="120" height="80" as="geometry" />
        </mxCell>
        <mxCell id="HmQoRry8JQ-jzrHZFkb6-51" style="edgeStyle=orthogonalEdgeStyle;rounded=0;orthogonalLoop=1;jettySize=auto;html=1;" edge="1" parent="1" source="HmQoRry8JQ-jzrHZFkb6-49" target="HmQoRry8JQ-jzrHZFkb6-6">
          <mxGeometry relative="1" as="geometry">
            <Array as="points">
              <mxPoint x="690" y="1235" />
              <mxPoint x="690" y="1190" />
              <mxPoint x="520" y="1190" />
              <mxPoint x="520" y="990" />
            </Array>
          </mxGeometry>
        </mxCell>
        <mxCell id="HmQoRry8JQ-jzrHZFkb6-49" value="" style="points=[[0.25,0,0],[0.5,0,0],[0.75,0,0],[1,0.25,0],[1,0.5,0],[1,0.75,0],[0.75,1,0],[0.5,1,0],[0.25,1,0],[0,0.75,0],[0,0.5,0],[0,0.25,0]];shape=mxgraph.bpmn.task2;whiteSpace=wrap;rectStyle=rounded;size=10;html=1;container=1;expand=0;collapsible=0;taskMarker=abstract;" vertex="1" parent="1">
          <mxGeometry x="540" y="1210" width="120" height="50" as="geometry" />
        </mxCell>
        <mxCell id="HmQoRry8JQ-jzrHZFkb6-52" style="edgeStyle=orthogonalEdgeStyle;rounded=0;orthogonalLoop=1;jettySize=auto;html=1;" edge="1" parent="1" source="HmQoRry8JQ-jzrHZFkb6-50" target="HmQoRry8JQ-jzrHZFkb6-6">
          <mxGeometry relative="1" as="geometry" />
        </mxCell>
        <mxCell id="HmQoRry8JQ-jzrHZFkb6-50" value="" style="points=[[0.25,0,0],[0.5,0,0],[0.75,0,0],[1,0.25,0],[1,0.5,0],[1,0.75,0],[0.75,1,0],[0.5,1,0],[0.25,1,0],[0,0.75,0],[0,0.5,0],[0,0.25,0]];shape=mxgraph.bpmn.task2;whiteSpace=wrap;rectStyle=rounded;size=10;html=1;container=1;expand=0;collapsible=0;taskMarker=abstract;" vertex="1" parent="1">
          <mxGeometry x="570" y="1140" width="60" height="30" as="geometry" />
        </mxCell>
        <mxCell id="HmQoRry8JQ-jzrHZFkb6-54" value="" style="endArrow=none;dashed=1;html=1;dashPattern=1 3;strokeWidth=2;rounded=0;fillColor=#e3c800;strokeColor=#B09500;" edge="1" parent="1">
          <mxGeometry width="50" height="50" relative="1" as="geometry">
            <mxPoint x="531" y="736" as="sourcePoint" />
            <mxPoint x="531" y="735" as="targetPoint" />
            <Array as="points">
              <mxPoint x="538" y="774" />
              <mxPoint x="663" y="792" />
              <mxPoint x="668" y="735" />
            </Array>
          </mxGeometry>
        </mxCell>
        <mxCell id="HmQoRry8JQ-jzrHZFkb6-55" value="&lt;b&gt;GROUP 1&lt;/b&gt;" style="text;html=1;align=center;verticalAlign=middle;whiteSpace=wrap;rounded=0;" vertex="1" parent="1">
          <mxGeometry x="640" y="760" width="60" height="30" as="geometry" />
        </mxCell>
        <mxCell id="HmQoRry8JQ-jzrHZFkb6-56" value="" style="endArrow=none;dashed=1;html=1;rounded=0;fillColor=#e3c800;strokeColor=#B09500;" edge="1" parent="1">
          <mxGeometry width="50" height="50" relative="1" as="geometry">
            <mxPoint x="510" y="344" as="sourcePoint" />
            <mxPoint x="512" y="344" as="targetPoint" />
            <Array as="points">
              <mxPoint x="890" y="350" />
              <mxPoint x="880" y="660" />
              <mxPoint x="521" y="662" />
            </Array>
          </mxGeometry>
        </mxCell>
        <mxCell id="HmQoRry8JQ-jzrHZFkb6-57" value="&lt;b&gt;GROUP 2&lt;/b&gt;" style="text;html=1;align=center;verticalAlign=middle;whiteSpace=wrap;rounded=0;" vertex="1" parent="1">
          <mxGeometry x="650" y="340" width="60" height="30" as="geometry" />
        </mxCell>
        <mxCell id="HmQoRry8JQ-jzrHZFkb6-58" value="" style="endArrow=none;dashed=1;html=1;rounded=0;fillColor=#e3c800;strokeColor=#B09500;" edge="1" parent="1">
          <mxGeometry width="50" height="50" relative="1" as="geometry">
            <mxPoint x="140" y="340" as="sourcePoint" />
            <mxPoint x="143" y="347" as="targetPoint" />
            <Array as="points">
              <mxPoint x="460" y="350" />
              <mxPoint x="460" y="670" />
              <mxPoint x="140" y="670" />
            </Array>
          </mxGeometry>
        </mxCell>
        <mxCell id="HmQoRry8JQ-jzrHZFkb6-60" value="&lt;b&gt;GROUP 3&lt;/b&gt;" style="text;html=1;align=center;verticalAlign=middle;whiteSpace=wrap;rounded=0;" vertex="1" parent="1">
          <mxGeometry x="280" y="330" width="60" height="30" as="geometry" />
        </mxCell>
        <mxCell id="HmQoRry8JQ-jzrHZFkb6-61" value="" style="endArrow=none;dashed=1;html=1;rounded=0;fillColor=#e3c800;strokeColor=#B09500;" edge="1" parent="1">
          <mxGeometry width="50" height="50" relative="1" as="geometry">
            <mxPoint x="246" y="836" as="sourcePoint" />
            <mxPoint x="243" y="829" as="targetPoint" />
            <Array as="points">
              <mxPoint x="410" y="840" />
              <mxPoint x="410" y="1060" />
              <mxPoint x="250" y="1050" />
            </Array>
          </mxGeometry>
        </mxCell>
        <mxCell id="HmQoRry8JQ-jzrHZFkb6-62" value="&lt;b&gt;GROUP 4&lt;/b&gt;" style="text;html=1;align=center;verticalAlign=middle;whiteSpace=wrap;rounded=0;" vertex="1" parent="1">
          <mxGeometry x="250" y="824" width="60" height="30" as="geometry" />
        </mxCell>
        <mxCell id="HmQoRry8JQ-jzrHZFkb6-63" value="" style="endArrow=none;dashed=1;html=1;rounded=0;fillColor=#e3c800;strokeColor=#B09500;" edge="1" parent="1">
          <mxGeometry width="50" height="50" relative="1" as="geometry">
            <mxPoint x="143" y="1349" as="sourcePoint" />
            <mxPoint x="143" y="1348" as="targetPoint" />
            <Array as="points">
              <mxPoint x="140" y="1660" />
              <mxPoint x="460" y="1650" />
              <mxPoint x="450" y="1349" />
            </Array>
          </mxGeometry>
        </mxCell>
        <mxCell id="HmQoRry8JQ-jzrHZFkb6-64" value="&lt;b&gt;GROUP 5&lt;/b&gt;" style="text;html=1;align=center;verticalAlign=middle;whiteSpace=wrap;rounded=0;" vertex="1" parent="1">
          <mxGeometry x="238" y="1336" width="60" height="30" as="geometry" />
        </mxCell>
        <mxCell id="HmQoRry8JQ-jzrHZFkb6-65" value="" style="endArrow=none;dashed=1;html=1;rounded=0;fillColor=#e3c800;strokeColor=#B09500;" edge="1" parent="1">
          <mxGeometry width="50" height="50" relative="1" as="geometry">
            <mxPoint x="519" y="1347" as="sourcePoint" />
            <mxPoint x="516" y="1344" as="targetPoint" />
            <Array as="points">
              <mxPoint x="510" y="1660" />
              <mxPoint x="870" y="1650" />
              <mxPoint x="870" y="1350" />
            </Array>
          </mxGeometry>
        </mxCell>
        <mxCell id="HmQoRry8JQ-jzrHZFkb6-66" value="&lt;b&gt;GROUP 6&lt;/b&gt;" style="text;html=1;align=center;verticalAlign=middle;whiteSpace=wrap;rounded=0;" vertex="1" parent="1">
          <mxGeometry x="570" y="1330" width="60" height="30" as="geometry" />
        </mxCell>
        <mxCell id="HmQoRry8JQ-jzrHZFkb6-67" value="" style="endArrow=none;dashed=1;html=1;rounded=0;fillColor=#e3c800;strokeColor=#B09500;" edge="1" parent="1">
          <mxGeometry width="50" height="50" relative="1" as="geometry">
            <mxPoint x="538" y="1107" as="sourcePoint" />
            <mxPoint x="538" y="1102" as="targetPoint" />
            <Array as="points">
              <mxPoint x="526" y="1264" />
              <mxPoint x="708" y="1264" />
              <mxPoint x="680" y="1120" />
            </Array>
          </mxGeometry>
        </mxCell>
        <mxCell id="HmQoRry8JQ-jzrHZFkb6-68" value="&lt;b&gt;GROUP 7&lt;/b&gt;" style="text;html=1;align=center;verticalAlign=middle;whiteSpace=wrap;rounded=0;" vertex="1" parent="1">
          <mxGeometry x="610" y="1100" width="60" height="30" as="geometry" />
        </mxCell>
        <mxCell id="HmQoRry8JQ-jzrHZFkb6-69" value="(the ports being at the top or bottom is just an example and may or may not be what happens in practice)" style="text;html=1;align=center;verticalAlign=middle;whiteSpace=wrap;rounded=0;" vertex="1" parent="1">
          <mxGeometry x="690" y="820" width="190" height="30" as="geometry" />
        </mxCell>
      </root>
    </mxGraphModel>
  </diagram>
</mxfile>
